<?xml version="1.0" encoding="utf-8"?>
<!-- Generator: Adobe Illustrator 19.0.0, SVG Export Plug-In . SVG Version: 6.00 Build 0)  -->
<svg version="1.1" id="Layer_1" xmlns="http://www.w3.org/2000/svg" xmlns:xlink="http://www.w3.org/1999/xlink" x="0px" y="0px"
	 width="76.2px" height="69px" viewBox="-267 362 76.2 69" style="enable-background:new -267 362 76.2 69;" xml:space="preserve">
<style type="text/css">
	.st0{fill:#81B3D2;}
</style>
<g>
	<path class="st0" d="M-195.1,408.1h-67.7c-2.3,0-4.3,1.9-4.3,4.3v3.5c0,2.3,1.9,4.3,4.3,4.3h1v1c0,5.5,4.5,9.9,9.9,9.9h45.9
		c5.5,0,9.9-4.5,9.9-9.9v-1h1c2.3,0,4.3-1.9,4.3-4.3v-3.5C-190.8,410-192.7,408.1-195.1,408.1z M-199,421.1c0,3.8-3.1,6.9-6.9,6.9
		h-45.9c-3.8,0-6.9-3.1-6.9-6.9v-1h59.8V421.1z M-193.8,415.8c0,0.7-0.6,1.3-1.3,1.3h-67.7c-0.7,0-1.3-0.6-1.3-1.3v-3.5
		c0-0.7,0.6-1.3,1.3-1.3h67.7c0.7,0,1.3,0.6,1.3,1.3V415.8z"/>
	<polygon class="st0" points="-250.8,399.9 -245.4,403.9 -239.9,399.9 -234.4,403.9 -228.9,399.9 -223.5,403.9 -218,399.9 
		-212.5,403.9 -207,399.9 -201.5,403.9 -195.2,399.3 -196.9,396.8 -201.5,400.2 -207,396.2 -212.5,400.2 -218,396.2 -223.5,400.2 
		-228.9,396.2 -234.4,400.2 -239.9,396.2 -245.4,400.2 -250.8,396.2 -256.3,400.2 -260.9,396.8 -262.7,399.3 -256.3,403.9 	"/>
	<path class="st0" d="M-196.1,393.1c0-0.6,0.1-2.6,0-3c-0.7-15.6-15.1-28.1-32.8-28.1c-17.7,0-32.2,12.5-32.8,28.1c0,0.4,0,2.4,0,3
		H-196.1z M-228.9,365c16,0,29.1,11.2,29.8,25.1h-59.7C-258.1,376.2-244.9,365-228.9,365z"/>
	<circle class="st0" cx="-228.9" cy="377.1" r="2"/>
	<circle class="st0" cx="-236.9" cy="372.1" r="2"/>
	<circle class="st0" cx="-220.9" cy="372.1" r="2"/>
</g>
</svg>
